<svg xmlns="http://www.w3.org/2000/svg" viewBox="0 0 100 100"><rect width="100" height="100" rx="22" fill="#0A0A0A"/><circle cx="30.0" cy="30.0" r="2.1" fill="#F2F1EE"/><circle cx="70.0" cy="30.0" r="2.1" fill="#F2F1EE"/><circle cx="30.0" cy="36.7" r="2.1" fill="#F2F1EE"/><circle cx="36.7" cy="36.7" r="2.1" fill="#F2F1EE"/><circle cx="63.3" cy="36.7" r="2.1" fill="#F2F1EE"/><circle cx="70.0" cy="36.7" r="2.1" fill="#F2F1EE"/><circle cx="36.7" cy="43.3" r="2.1" fill="#F2F1EE"/><circle cx="63.3" cy="43.3" r="2.1" fill="#F2F1EE"/><circle cx="36.7" cy="50.0" r="2.1" fill="#F2F1EE"/><circle cx="43.3" cy="50.0" r="2.1" fill="#F2F1EE"/><circle cx="56.7" cy="50.0" r="2.1" fill="#F2F1EE"/><circle cx="63.3" cy="50.0" r="2.1" fill="#F2F1EE"/><circle cx="43.3" cy="56.7" r="2.1" fill="#F2F1EE"/><circle cx="56.7" cy="56.7" r="2.1" fill="#F2F1EE"/><circle cx="43.3" cy="63.3" r="2.1" fill="#F2F1EE"/><circle cx="56.7" cy="63.3" r="2.1" fill="#F2F1EE"/><circle cx="43.3" cy="70.0" r="2.1" fill="#F2F1EE"/><circle cx="50.0" cy="70.0" r="2.1" fill="#F2F1EE"/><circle cx="56.7" cy="70.0" r="2.1" fill="#F2F1EE"/><circle cx="50.0" cy="76.7" r="2.1" fill="#D71921"/></svg>